<svg id="visual" preserveAspectRatio="none" viewBox="0 0 675 900" xmlns="http://www.w3.org/2000/svg" xmlns:xlink="http://www.w3.org/1999/xlink" version="1.1"><rect x="0" y="0" width="675" height="900" fill="#071524"></rect><path d="M0 832L11.3 837C22.7 842 45.3 852 67.8 854.3C90.3 856.7 112.7 851.3 135.2 848.7C157.7 846 180.3 846 202.8 848.3C225.3 850.7 247.7 855.3 270.2 857.3C292.7 859.3 315.3 858.7 337.8 853.7C360.3 848.7 382.7 839.3 405 840C427.3 840.7 449.7 851.3 472.2 855.5C494.7 859.7 517.3 857.3 540 855.8C562.7 854.3 585.3 853.7 607.8 851.3C630.3 849 652.7 845 663.8 843L675 841L675 901L663.8 901C652.7 901 630.3 901 607.8 901C585.3 901 562.7 901 540 901C517.3 901 494.7 901 472.2 901C449.7 901 427.3 901 405 901C382.7 901 360.3 901 337.8 901C315.3 901 292.7 901 270.2 901C247.7 901 225.3 901 202.8 901C180.3 901 157.7 901 135.2 901C112.7 901 90.3 901 67.8 901C45.3 901 22.7 901 11.3 901L0 901Z" fill="#0072bb"></path><path d="M0 849L11.3 850C22.7 851 45.3 853 67.8 852.5C90.3 852 112.7 849 135.2 851.7C157.7 854.3 180.3 862.7 202.8 866.3C225.3 870 247.7 869 270.2 865.2C292.7 861.3 315.3 854.7 337.8 855.3C360.3 856 382.7 864 405 864C427.3 864 449.7 856 472.2 851.3C494.7 846.7 517.3 845.3 540 848.7C562.7 852 585.3 860 607.8 861C630.3 862 652.7 856 663.8 853L675 850L675 901L663.8 901C652.7 901 630.3 901 607.8 901C585.3 901 562.7 901 540 901C517.3 901 494.7 901 472.2 901C449.7 901 427.3 901 405 901C382.7 901 360.3 901 337.8 901C315.3 901 292.7 901 270.2 901C247.7 901 225.3 901 202.8 901C180.3 901 157.7 901 135.2 901C112.7 901 90.3 901 67.8 901C45.3 901 22.7 901 11.3 901L0 901Z" fill="#00abbd"></path><path d="M0 858L11.3 859.2C22.7 860.3 45.3 862.7 67.8 866.5C90.3 870.3 112.7 875.7 135.2 877.3C157.7 879 180.3 877 202.8 874.5C225.3 872 247.7 869 270.2 869.8C292.7 870.7 315.3 875.3 337.8 874C360.3 872.7 382.7 865.3 405 862C427.3 858.7 449.7 859.3 472.2 862.2C494.7 865 517.3 870 540 871C562.7 872 585.3 869 607.8 869.2C630.3 869.3 652.7 872.7 663.8 874.3L675 876L675 901L663.8 901C652.7 901 630.3 901 607.8 901C585.3 901 562.7 901 540 901C517.3 901 494.7 901 472.2 901C449.7 901 427.3 901 405 901C382.7 901 360.3 901 337.8 901C315.3 901 292.7 901 270.2 901C247.7 901 225.3 901 202.8 901C180.3 901 157.7 901 135.2 901C112.7 901 90.3 901 67.8 901C45.3 901 22.7 901 11.3 901L0 901Z" fill="#59d381"></path><path d="M0 885L11.3 884.7C22.7 884.3 45.3 883.7 67.8 883C90.3 882.3 112.7 881.7 135.2 880.2C157.7 878.7 180.3 876.3 202.8 875.3C225.3 874.3 247.7 874.7 270.2 875.5C292.7 876.3 315.3 877.7 337.8 879.2C360.3 880.7 382.7 882.3 405 883.2C427.3 884 449.7 884 472.2 882.2C494.7 880.3 517.3 876.7 540 876C562.7 875.3 585.3 877.7 607.8 879.2C630.3 880.7 652.7 881.3 663.8 881.7L675 882L675 901L663.8 901C652.7 901 630.3 901 607.8 901C585.3 901 562.7 901 540 901C517.3 901 494.7 901 472.2 901C449.7 901 427.3 901 405 901C382.7 901 360.3 901 337.8 901C315.3 901 292.7 901 270.2 901C247.7 901 225.3 901 202.8 901C180.3 901 157.7 901 135.2 901C112.7 901 90.3 901 67.8 901C45.3 901 22.7 901 11.3 901L0 901Z" fill="#ffdd09"></path></svg>