<svg id="visual" preserveAspectRatio="none" viewBox="0 0 675 900" xmlns="http://www.w3.org/2000/svg" xmlns:xlink="http://www.w3.org/1999/xlink" version="1.1"><rect x="0" y="0" width="675" height="900" fill="#071524"></rect><path d="M0 827L11.3 823.2C22.7 819.3 45.3 811.7 67.8 803.2C90.3 794.7 112.7 785.3 135.2 788C157.7 790.7 180.3 805.3 202.8 812.7C225.3 820 247.7 820 270.2 822.2C292.7 824.3 315.3 828.7 337.8 821.8C360.3 815 382.7 797 405 784.7C427.3 772.3 449.7 765.7 472.2 763.7C494.7 761.7 517.3 764.3 540 765.8C562.7 767.3 585.3 767.7 607.8 772.7C630.3 777.7 652.7 787.3 663.8 792.2L675 797L675 901L663.8 901C652.7 901 630.3 901 607.8 901C585.3 901 562.7 901 540 901C517.3 901 494.7 901 472.2 901C449.7 901 427.3 901 405 901C382.7 901 360.3 901 337.8 901C315.3 901 292.7 901 270.2 901C247.7 901 225.3 901 202.8 901C180.3 901 157.7 901 135.2 901C112.7 901 90.3 901 67.8 901C45.3 901 22.7 901 11.3 901L0 901Z" fill="#0072bb"></path><path d="M0 788L11.3 788.7C22.7 789.3 45.3 790.7 67.8 792.3C90.3 794 112.7 796 135.2 801C157.7 806 180.3 814 202.8 812.3C225.3 810.7 247.7 799.3 270.2 794.5C292.7 789.7 315.3 791.3 337.8 801.5C360.3 811.7 382.7 830.3 405 839.2C427.3 848 449.7 847 472.2 846.3C494.7 845.7 517.3 845.3 540 837.8C562.7 830.3 585.3 815.7 607.8 811.5C630.3 807.3 652.7 813.7 663.8 816.8L675 820L675 901L663.8 901C652.7 901 630.3 901 607.8 901C585.3 901 562.7 901 540 901C517.3 901 494.7 901 472.2 901C449.7 901 427.3 901 405 901C382.7 901 360.3 901 337.8 901C315.3 901 292.7 901 270.2 901C247.7 901 225.3 901 202.8 901C180.3 901 157.7 901 135.2 901C112.7 901 90.3 901 67.8 901C45.3 901 22.7 901 11.3 901L0 901Z" fill="#00abbd"></path><path d="M0 852L11.3 853.2C22.7 854.3 45.3 856.7 67.8 855.3C90.3 854 112.7 849 135.2 846.3C157.7 843.7 180.3 843.3 202.8 843C225.3 842.7 247.7 842.3 270.2 838.2C292.7 834 315.3 826 337.8 821.8C360.3 817.7 382.7 817.3 405 823C427.3 828.7 449.7 840.3 472.2 847.8C494.7 855.3 517.3 858.7 540 856.3C562.7 854 585.3 846 607.8 841.2C630.3 836.3 652.7 834.7 663.8 833.8L675 833L675 901L663.8 901C652.7 901 630.3 901 607.8 901C585.3 901 562.7 901 540 901C517.3 901 494.7 901 472.2 901C449.7 901 427.3 901 405 901C382.7 901 360.3 901 337.8 901C315.3 901 292.7 901 270.2 901C247.7 901 225.3 901 202.8 901C180.3 901 157.7 901 135.2 901C112.7 901 90.3 901 67.8 901C45.3 901 22.7 901 11.3 901L0 901Z" fill="#59d381"></path><path d="M0 849L11.3 849.3C22.7 849.7 45.3 850.3 67.8 850.3C90.3 850.3 112.7 849.7 135.2 849.2C157.7 848.7 180.3 848.3 202.8 851C225.3 853.7 247.7 859.3 270.2 860.3C292.7 861.3 315.3 857.7 337.8 860.2C360.3 862.7 382.7 871.3 405 875.7C427.3 880 449.7 880 472.2 875.8C494.7 871.7 517.3 863.3 540 861C562.7 858.7 585.3 862.3 607.8 862.2C630.3 862 652.7 858 663.8 856L675 854L675 901L663.8 901C652.7 901 630.3 901 607.8 901C585.3 901 562.7 901 540 901C517.3 901 494.7 901 472.2 901C449.7 901 427.3 901 405 901C382.7 901 360.3 901 337.8 901C315.3 901 292.7 901 270.2 901C247.7 901 225.3 901 202.8 901C180.3 901 157.7 901 135.2 901C112.7 901 90.3 901 67.8 901C45.3 901 22.7 901 11.3 901L0 901Z" fill="#ffdd09"></path></svg>