<svg id="visual" preserveAspectRatio="none" viewBox="0 0 675 900" xmlns="http://www.w3.org/2000/svg" xmlns:xlink="http://www.w3.org/1999/xlink" version="1.1"><rect x="0" y="0" width="675" height="900" fill="#071524"></rect><path d="M0 807L16 804C32 801 64 795 96.2 786.8C128.3 778.7 160.7 768.3 192.8 764.2C225 760 257 762 289.2 770.8C321.3 779.7 353.7 795.3 385.8 800.3C418 805.3 450 799.7 482.2 789C514.3 778.3 546.7 762.7 578.8 759.2C611 755.7 643 764.3 659 768.7L675 773L675 901L659 901C643 901 611 901 578.8 901C546.7 901 514.3 901 482.2 901C450 901 418 901 385.8 901C353.7 901 321.3 901 289.2 901C257 901 225 901 192.8 901C160.7 901 128.3 901 96.2 901C64 901 32 901 16 901L0 901Z" fill="#071524"></path><path d="M0 802L16 803.2C32 804.3 64 806.7 96.2 801.7C128.3 796.7 160.7 784.3 192.8 783.3C225 782.3 257 792.7 289.2 798.5C321.3 804.3 353.7 805.7 385.8 810C418 814.3 450 821.7 482.2 828C514.3 834.3 546.7 839.7 578.8 833.5C611 827.3 643 809.7 659 800.8L675 792L675 901L659 901C643 901 611 901 578.8 901C546.7 901 514.3 901 482.2 901C450 901 418 901 385.8 901C353.7 901 321.3 901 289.2 901C257 901 225 901 192.8 901C160.7 901 128.3 901 96.2 901C64 901 32 901 16 901L0 901Z" fill="#112a45"></path><path d="M0 818L16 815.8C32 813.7 64 809.3 96.2 812.8C128.3 816.3 160.7 827.7 192.8 828.5C225 829.3 257 819.7 289.2 816C321.3 812.3 353.7 814.7 385.8 816.8C418 819 450 821 482.2 820.7C514.3 820.3 546.7 817.7 578.8 820.2C611 822.7 643 830.3 659 834.2L675 838L675 901L659 901C643 901 611 901 578.8 901C546.7 901 514.3 901 482.2 901C450 901 418 901 385.8 901C353.7 901 321.3 901 289.2 901C257 901 225 901 192.8 901C160.7 901 128.3 901 96.2 901C64 901 32 901 16 901L0 901Z" fill="#1b4168"></path><path d="M0 840L16 847.2C32 854.3 64 868.7 96.2 869.2C128.3 869.7 160.7 856.3 192.8 850.2C225 844 257 845 289.2 845.5C321.3 846 353.7 846 385.8 850.2C418 854.3 450 862.7 482.2 864.3C514.3 866 546.7 861 578.8 859.2C611 857.3 643 858.7 659 859.3L675 860L675 901L659 901C643 901 611 901 578.8 901C546.7 901 514.3 901 482.2 901C450 901 418 901 385.8 901C353.7 901 321.3 901 289.2 901C257 901 225 901 192.8 901C160.7 901 128.3 901 96.2 901C64 901 32 901 16 901L0 901Z" fill="#27598e"></path></svg>