<svg id="visual" preserveAspectRatio="none" viewBox="0 0 675 900" xmlns="http://www.w3.org/2000/svg" xmlns:xlink="http://www.w3.org/1999/xlink" version="1.1"><rect x="0" y="0" width="675" height="900" fill="#071524"></rect><path d="M0 820L12.5 824.2C25 828.3 50 836.7 75 837.7C100 838.7 125 832.3 150 835.7C175 839 200 852 225 850.7C250 849.3 275 833.7 300 832.8C325 832 350 846 375 845.7C400 845.3 425 830.7 450 825.2C475 819.7 500 823.3 525 828.7C550 834 575 841 600 847C625 853 650 858 662.5 860.5L675 863L675 901L662.5 901C650 901 625 901 600 901C575 901 550 901 525 901C500 901 475 901 450 901C425 901 400 901 375 901C350 901 325 901 300 901C275 901 250 901 225 901C200 901 175 901 150 901C125 901 100 901 75 901C50 901 25 901 12.5 901L0 901Z" fill="#ffdd09"></path><path d="M0 853L12.5 855.7C25 858.3 50 863.7 75 862.3C100 861 125 853 150 851.3C175 849.7 200 854.3 225 855.3C250 856.3 275 853.7 300 853.2C325 852.7 350 854.3 375 857.2C400 860 425 864 450 861.5C475 859 500 850 525 844.8C550 839.7 575 838.3 600 839.2C625 840 650 843 662.5 844.5L675 846L675 901L662.5 901C650 901 625 901 600 901C575 901 550 901 525 901C500 901 475 901 450 901C425 901 400 901 375 901C350 901 325 901 300 901C275 901 250 901 225 901C200 901 175 901 150 901C125 901 100 901 75 901C50 901 25 901 12.5 901L0 901Z" fill="#98dc58"></path><path d="M0 848L12.5 853C25 858 50 868 75 867C100 866 125 854 150 850.5C175 847 200 852 225 854C250 856 275 855 300 852.5C325 850 350 846 375 846.3C400 846.7 425 851.3 450 851.8C475 852.3 500 848.7 525 851.7C550 854.7 575 864.3 600 864.7C625 865 650 856 662.5 851.5L675 847L675 901L662.5 901C650 901 625 901 600 901C575 901 550 901 525 901C500 901 475 901 450 901C425 901 400 901 375 901C350 901 325 901 300 901C275 901 250 901 225 901C200 901 175 901 150 901C125 901 100 901 75 901C50 901 25 901 12.5 901L0 901Z" fill="#39cc93"></path><path d="M0 864L12.5 867.2C25 870.3 50 876.7 75 876.7C100 876.7 125 870.3 150 868C175 865.7 200 867.3 225 867.3C250 867.3 275 865.7 300 867.3C325 869 350 874 375 874.7C400 875.3 425 871.7 450 870.5C475 869.3 500 870.7 525 871.5C550 872.3 575 872.7 600 873.7C625 874.7 650 876.3 662.5 877.2L675 878L675 901L662.5 901C650 901 625 901 600 901C575 901 550 901 525 901C500 901 475 901 450 901C425 901 400 901 375 901C350 901 325 901 300 901C275 901 250 901 225 901C200 901 175 901 150 901C125 901 100 901 75 901C50 901 25 901 12.5 901L0 901Z" fill="#00b4b5"></path><path d="M0 867L12.5 870.7C25 874.3 50 881.7 75 882.7C100 883.7 125 878.3 150 878C175 877.7 200 882.3 225 885.2C250 888 275 889 300 885.8C325 882.7 350 875.3 375 874.3C400 873.3 425 878.7 450 881.2C475 883.7 500 883.3 525 882.8C550 882.3 575 881.7 600 881.3C625 881 650 881 662.5 881L675 881L675 901L662.5 901C650 901 625 901 600 901C575 901 550 901 525 901C500 901 475 901 450 901C425 901 400 901 375 901C350 901 325 901 300 901C275 901 250 901 225 901C200 901 175 901 150 901C125 901 100 901 75 901C50 901 25 901 12.5 901L0 901Z" fill="#0096c6"></path><path d="M0 884L12.5 883.3C25 882.7 50 881.3 75 883.3C100 885.3 125 890.7 150 893.3C175 896 200 896 225 893.5C250 891 275 886 300 883.7C325 881.3 350 881.7 375 884.2C400 886.7 425 891.3 450 891.5C475 891.7 500 887.3 525 886.5C550 885.7 575 888.3 600 890.5C625 892.7 650 894.3 662.5 895.2L675 896L675 901L662.5 901C650 901 625 901 600 901C575 901 550 901 525 901C500 901 475 901 450 901C425 901 400 901 375 901C350 901 325 901 300 901C275 901 250 901 225 901C200 901 175 901 150 901C125 901 100 901 75 901C50 901 25 901 12.5 901L0 901Z" fill="#0072bb"></path></svg>