<svg id="visual" preserveAspectRatio="none" viewBox="0 0 675 900" xmlns="http://www.w3.org/2000/svg" xmlns:xlink="http://www.w3.org/1999/xlink" version="1.1"><rect x="0" y="0" width="675" height="900" fill="#071524"></rect><path d="M0 845L14 844.3C28 843.7 56 842.3 84.2 840.2C112.3 838 140.7 835 168.8 837.8C197 840.7 225 849.3 253.2 850.2C281.3 851 309.7 844 337.8 842.3C366 840.7 394 844.3 422 842.3C450 840.3 478 832.7 506.2 832.7C534.3 832.7 562.7 840.3 590.8 840.8C619 841.3 647 834.7 661 831.3L675 828L675 901L661 901C647 901 619 901 590.8 901C562.7 901 534.3 901 506.2 901C478 901 450 901 422 901C394 901 366 901 337.8 901C309.7 901 281.3 901 253.2 901C225 901 197 901 168.8 901C140.7 901 112.3 901 84.2 901C56 901 28 901 14 901L0 901Z" fill="#071524"></path><path d="M0 840L14 840.5C28 841 56 842 84.2 842.3C112.3 842.7 140.7 842.3 168.8 845.3C197 848.3 225 854.7 253.2 859.8C281.3 865 309.7 869 337.8 866.2C366 863.3 394 853.7 422 850.5C450 847.3 478 850.7 506.2 855C534.3 859.3 562.7 864.7 590.8 862.7C619 860.7 647 851.3 661 846.7L675 842L675 901L661 901C647 901 619 901 590.8 901C562.7 901 534.3 901 506.2 901C478 901 450 901 422 901C394 901 366 901 337.8 901C309.7 901 281.3 901 253.2 901C225 901 197 901 168.8 901C140.7 901 112.3 901 84.2 901C56 901 28 901 14 901L0 901Z" fill="#0d3252"></path><path d="M0 859L14 862.3C28 865.7 56 872.3 84.2 873C112.3 873.7 140.7 868.3 168.8 865.3C197 862.3 225 861.7 253.2 861.2C281.3 860.7 309.7 860.3 337.8 862.7C366 865 394 870 422 872.2C450 874.3 478 873.7 506.2 874.7C534.3 875.7 562.7 878.3 590.8 875.5C619 872.7 647 864.3 661 860.2L675 856L675 901L661 901C647 901 619 901 590.8 901C562.7 901 534.3 901 506.2 901C478 901 450 901 422 901C394 901 366 901 337.8 901C309.7 901 281.3 901 253.2 901C225 901 197 901 168.8 901C140.7 901 112.3 901 84.2 901C56 901 28 901 14 901L0 901Z" fill="#0c5185"></path><path d="M0 890L14 888.5C28 887 56 884 84.2 882.2C112.3 880.3 140.7 879.7 168.8 878.7C197 877.7 225 876.3 253.2 878C281.3 879.7 309.7 884.3 337.8 885.8C366 887.3 394 885.7 422 882.2C450 878.7 478 873.3 506.2 873.5C534.3 873.7 562.7 879.3 590.8 883C619 886.7 647 888.3 661 889.2L675 890L675 901L661 901C647 901 619 901 590.8 901C562.7 901 534.3 901 506.2 901C478 901 450 901 422 901C394 901 366 901 337.8 901C309.7 901 281.3 901 253.2 901C225 901 197 901 168.8 901C140.7 901 112.3 901 84.2 901C56 901 28 901 14 901L0 901Z" fill="#0072bb"></path></svg>