<svg id="visual" preserveAspectRatio="none" viewBox="0 0 675 900" xmlns="http://www.w3.org/2000/svg" xmlns:xlink="http://www.w3.org/1999/xlink" version="1.1"><rect x="0" y="0" width="675" height="900" fill="#071524"></rect><path d="M0 840L12.5 838C25 836 50 832 75 830C100 828 125 828 150 826.7C175 825.3 200 822.7 225 822.5C250 822.3 275 824.7 300 826.3C325 828 350 829 375 829.2C400 829.3 425 828.7 450 829.7C475 830.7 500 833.3 525 831.5C550 829.7 575 823.3 600 823.8C625 824.3 650 831.7 662.5 835.3L675 839L675 901L662.5 901C650 901 625 901 600 901C575 901 550 901 525 901C500 901 475 901 450 901C425 901 400 901 375 901C350 901 325 901 300 901C275 901 250 901 225 901C200 901 175 901 150 901C125 901 100 901 75 901C50 901 25 901 12.5 901L0 901Z" fill="#071524"></path><path d="M0 854L12.5 852.2C25 850.3 50 846.7 75 848.7C100 850.7 125 858.3 150 861.8C175 865.3 200 864.7 225 863C250 861.3 275 858.7 300 855C325 851.3 350 846.7 375 845.3C400 844 425 846 450 849.8C475 853.7 500 859.3 525 858.8C550 858.3 575 851.7 600 848C625 844.3 650 843.7 662.5 843.3L675 843L675 901L662.5 901C650 901 625 901 600 901C575 901 550 901 525 901C500 901 475 901 450 901C425 901 400 901 375 901C350 901 325 901 300 901C275 901 250 901 225 901C200 901 175 901 150 901C125 901 100 901 75 901C50 901 25 901 12.5 901L0 901Z" fill="#112a45"></path><path d="M0 873L12.5 873.3C25 873.7 50 874.3 75 871.7C100 869 125 863 150 859.3C175 855.7 200 854.3 225 854.3C250 854.3 275 855.7 300 856.3C325 857 350 857 375 860.2C400 863.3 425 869.7 450 871.2C475 872.7 500 869.3 525 865.7C550 862 575 858 600 859.3C625 860.7 650 867.3 662.5 870.7L675 874L675 901L662.5 901C650 901 625 901 600 901C575 901 550 901 525 901C500 901 475 901 450 901C425 901 400 901 375 901C350 901 325 901 300 901C275 901 250 901 225 901C200 901 175 901 150 901C125 901 100 901 75 901C50 901 25 901 12.5 901L0 901Z" fill="#1b4168"></path><path d="M0 873L12.5 873.3C25 873.7 50 874.3 75 876.2C100 878 125 881 150 881.7C175 882.3 200 880.7 225 881.8C250 883 275 887 300 886.7C325 886.3 350 881.7 375 878C400 874.3 425 871.7 450 870.3C475 869 500 869 525 871.7C550 874.3 575 879.7 600 881.8C625 884 650 883 662.5 882.5L675 882L675 901L662.5 901C650 901 625 901 600 901C575 901 550 901 525 901C500 901 475 901 450 901C425 901 400 901 375 901C350 901 325 901 300 901C275 901 250 901 225 901C200 901 175 901 150 901C125 901 100 901 75 901C50 901 25 901 12.5 901L0 901Z" fill="#27598e"></path></svg>