<svg id="visual" preserveAspectRatio="none" viewBox="0 0 675 900" xmlns="http://www.w3.org/2000/svg" xmlns:xlink="http://www.w3.org/1999/xlink" version="1.1"><rect x="0" y="0" width="675" height="900" fill="#071524"></rect><path d="M0 851L14 851.2C28 851.3 56 851.7 84.2 847.5C112.3 843.3 140.7 834.7 168.8 830.7C197 826.7 225 827.3 253.2 831.2C281.3 835 309.7 842 337.8 845.5C366 849 394 849 422 846.8C450 844.7 478 840.3 506.2 836.3C534.3 832.3 562.7 828.7 590.8 827.2C619 825.7 647 826.3 661 826.7L675 827L675 901L661 901C647 901 619 901 590.8 901C562.7 901 534.3 901 506.2 901C478 901 450 901 422 901C394 901 366 901 337.8 901C309.7 901 281.3 901 253.2 901C225 901 197 901 168.8 901C140.7 901 112.3 901 84.2 901C56 901 28 901 14 901L0 901Z" fill="#071524"></path><path d="M0 853L14 852.3C28 851.7 56 850.3 84.2 847.7C112.3 845 140.7 841 168.8 840.2C197 839.3 225 841.7 253.2 845.3C281.3 849 309.7 854 337.8 857.3C366 860.7 394 862.3 422 860.8C450 859.3 478 854.7 506.2 852C534.3 849.3 562.7 848.7 590.8 846.5C619 844.3 647 840.7 661 838.8L675 837L675 901L661 901C647 901 619 901 590.8 901C562.7 901 534.3 901 506.2 901C478 901 450 901 422 901C394 901 366 901 337.8 901C309.7 901 281.3 901 253.2 901C225 901 197 901 168.8 901C140.7 901 112.3 901 84.2 901C56 901 28 901 14 901L0 901Z" fill="#112a45"></path><path d="M0 858L14 860C28 862 56 866 84.2 869.2C112.3 872.3 140.7 874.7 168.8 874.8C197 875 225 873 253.2 873.2C281.3 873.3 309.7 875.7 337.8 874.2C366 872.7 394 867.3 422 865C450 862.7 478 863.3 506.2 865.3C534.3 867.3 562.7 870.7 590.8 869.7C619 868.7 647 863.3 661 860.7L675 858L675 901L661 901C647 901 619 901 590.8 901C562.7 901 534.3 901 506.2 901C478 901 450 901 422 901C394 901 366 901 337.8 901C309.7 901 281.3 901 253.2 901C225 901 197 901 168.8 901C140.7 901 112.3 901 84.2 901C56 901 28 901 14 901L0 901Z" fill="#1b4168"></path><path d="M0 887L14 887.8C28 888.7 56 890.3 84.2 887.5C112.3 884.7 140.7 877.3 168.8 874.2C197 871 225 872 253.2 873.3C281.3 874.7 309.7 876.3 337.8 877.2C366 878 394 878 422 880.2C450 882.3 478 886.7 506.2 887.8C534.3 889 562.7 887 590.8 885.3C619 883.7 647 882.3 661 881.7L675 881L675 901L661 901C647 901 619 901 590.8 901C562.7 901 534.3 901 506.2 901C478 901 450 901 422 901C394 901 366 901 337.8 901C309.7 901 281.3 901 253.2 901C225 901 197 901 168.8 901C140.7 901 112.3 901 84.2 901C56 901 28 901 14 901L0 901Z" fill="#27598e"></path></svg>