<svg id="visual" preserveAspectRatio="none" viewBox="0 0 675 900" xmlns="http://www.w3.org/2000/svg" xmlns:xlink="http://www.w3.org/1999/xlink" version="1.1"><rect x="0" y="0" viewBox="0 0 600 900" fill="#071524"></rect><path d="M0 830L11.3 833.7C22.7 837.3 45.3 844.7 67.8 847.2C90.3 849.7 112.7 847.3 135.2 846.3C157.7 845.3 180.3 845.7 202.8 849.2C225.3 852.7 247.7 859.3 270.2 860C292.7 860.7 315.3 855.3 337.8 850C360.3 844.7 382.7 839.3 405 840.7C427.3 842 449.7 850 472.2 849.3C494.7 848.7 517.3 839.3 540 837.5C562.7 835.7 585.3 841.3 607.8 843.2C630.3 845 652.7 843 663.8 842L675 841L675 901L663.8 901C652.7 901 630.3 901 607.8 901C585.3 901 562.7 901 540 901C517.3 901 494.7 901 472.2 901C449.7 901 427.3 901 405 901C382.7 901 360.3 901 337.8 901C315.3 901 292.7 901 270.2 901C247.7 901 225.3 901 202.8 901C180.3 901 157.7 901 135.2 901C112.7 901 90.3 901 67.8 901C45.3 901 22.7 901 11.3 901L0 901Z" fill="#ffdd09"></path><path d="M0 849L11.3 849.5C22.7 850 45.3 851 67.8 855.3C90.3 859.7 112.7 867.3 135.2 868.5C157.7 869.7 180.3 864.3 202.8 861.5C225.3 858.7 247.7 858.3 270.2 857.2C292.7 856 315.3 854 337.8 856.8C360.3 859.7 382.7 867.3 405 869.5C427.3 871.7 449.7 868.3 472.2 866C494.7 863.7 517.3 862.3 540 859C562.7 855.7 585.3 850.3 607.8 849.7C630.3 849 652.7 853 663.8 855L675 857L675 901L663.8 901C652.7 901 630.3 901 607.8 901C585.3 901 562.7 901 540 901C517.3 901 494.7 901 472.2 901C449.7 901 427.3 901 405 901C382.7 901 360.3 901 337.8 901C315.3 901 292.7 901 270.2 901C247.7 901 225.3 901 202.8 901C180.3 901 157.7 901 135.2 901C112.7 901 90.3 901 67.8 901C45.3 901 22.7 901 11.3 901L0 901Z" fill="#ffbb00"></path><path d="M0 871L11.3 869C22.7 867 45.3 863 67.8 862.7C90.3 862.3 112.7 865.7 135.2 867.5C157.7 869.3 180.3 869.7 202.8 869.7C225.3 869.7 247.7 869.3 270.2 871C292.7 872.7 315.3 876.3 337.8 876.7C360.3 877 382.7 874 405 870.3C427.3 866.7 449.7 862.3 472.2 861C494.7 859.7 517.3 861.3 540 864.7C562.7 868 585.3 873 607.8 875.2C630.3 877.3 652.7 876.7 663.8 876.3L675 876L675 901L663.8 901C652.7 901 630.3 901 607.8 901C585.3 901 562.7 901 540 901C517.3 901 494.7 901 472.2 901C449.7 901 427.3 901 405 901C382.7 901 360.3 901 337.8 901C315.3 901 292.7 901 270.2 901C247.7 901 225.3 901 202.8 901C180.3 901 157.7 901 135.2 901C112.7 901 90.3 901 67.8 901C45.3 901 22.7 901 11.3 901L0 901Z" fill="#fd9900"></path><path d="M0 882L11.3 882C22.7 882 45.3 882 67.8 883C90.3 884 112.7 886 135.2 886.2C157.7 886.3 180.3 884.7 202.8 884.2C225.3 883.7 247.7 884.3 270.2 883.8C292.7 883.3 315.3 881.7 337.8 882C360.3 882.3 382.7 884.7 405 886.3C427.3 888 449.7 889 472.2 886.8C494.7 884.7 517.3 879.3 540 876.8C562.7 874.3 585.3 874.7 607.8 876.5C630.3 878.3 652.7 881.7 663.8 883.3L675 885L675 901L663.8 901C652.7 901 630.3 901 607.8 901C585.3 901 562.7 901 540 901C517.3 901 494.7 901 472.2 901C449.7 901 427.3 901 405 901C382.7 901 360.3 901 337.8 901C315.3 901 292.7 901 270.2 901C247.7 901 225.3 901 202.8 901C180.3 901 157.7 901 135.2 901C112.7 901 90.3 901 67.8 901C45.3 901 22.7 901 11.3 901L0 901Z" fill="#f7770f"></path></svg>