<svg id="visual" preserveAspectRatio="none" viewBox="0 0 675 900" xmlns="http://www.w3.org/2000/svg" xmlns:xlink="http://www.w3.org/1999/xlink" version="1.1"><rect x="0" y="0" width="675" height="900" fill="#071524"></rect><path d="M0 791L16 790.2C32 789.3 64 787.7 96.2 788.7C128.3 789.7 160.7 793.3 192.8 789.2C225 785 257 773 289.2 773.7C321.3 774.3 353.7 787.7 385.8 789.7C418 791.7 450 782.3 482.2 780.3C514.3 778.3 546.7 783.7 578.8 788.2C611 792.7 643 796.3 659 798.2L675 800L675 901L659 901C643 901 611 901 578.8 901C546.7 901 514.3 901 482.2 901C450 901 418 901 385.8 901C353.7 901 321.3 901 289.2 901C257 901 225 901 192.8 901C160.7 901 128.3 901 96.2 901C64 901 32 901 16 901L0 901Z" fill="#071524"></path><path d="M0 806L16 808.5C32 811 64 816 96.2 818.5C128.3 821 160.7 821 192.8 818.2C225 815.3 257 809.7 289.2 805.2C321.3 800.7 353.7 797.3 385.8 796.5C418 795.7 450 797.3 482.2 802.5C514.3 807.7 546.7 816.3 578.8 816.7C611 817 643 809 659 805L675 801L675 901L659 901C643 901 611 901 578.8 901C546.7 901 514.3 901 482.2 901C450 901 418 901 385.8 901C353.7 901 321.3 901 289.2 901C257 901 225 901 192.8 901C160.7 901 128.3 901 96.2 901C64 901 32 901 16 901L0 901Z" fill="#0c2a46"></path><path d="M0 818L16 815.5C32 813 64 808 96.2 812.2C128.3 816.3 160.7 829.7 192.8 833C225 836.3 257 829.7 289.2 828.5C321.3 827.3 353.7 831.7 385.8 834.3C418 837 450 838 482.2 832.3C514.3 826.7 546.7 814.3 578.8 809.7C611 805 643 808 659 809.5L675 811L675 901L659 901C643 901 611 901 578.8 901C546.7 901 514.3 901 482.2 901C450 901 418 901 385.8 901C353.7 901 321.3 901 289.2 901C257 901 225 901 192.8 901C160.7 901 128.3 901 96.2 901C64 901 32 901 16 901L0 901Z" fill="#0d416b"></path><path d="M0 859L16 860C32 861 64 863 96.2 862.8C128.3 862.7 160.7 860.3 192.8 857.3C225 854.3 257 850.7 289.2 850.8C321.3 851 353.7 855 385.8 857.3C418 859.7 450 860.3 482.2 856.2C514.3 852 546.7 843 578.8 840.3C611 837.7 643 841.3 659 843.2L675 845L675 901L659 901C643 901 611 901 578.8 901C546.7 901 514.3 901 482.2 901C450 901 418 901 385.8 901C353.7 901 321.3 901 289.2 901C257 901 225 901 192.8 901C160.7 901 128.3 901 96.2 901C64 901 32 901 16 901L0 901Z" fill="#0a5992"></path><path d="M0 882L16 879.8C32 877.7 64 873.3 96.2 871.5C128.3 869.7 160.7 870.3 192.8 869.3C225 868.3 257 865.7 289.2 867.2C321.3 868.7 353.7 874.3 385.8 875C418 875.7 450 871.3 482.2 869.5C514.3 867.7 546.7 868.3 578.8 866.5C611 864.7 643 860.3 659 858.2L675 856L675 901L659 901C643 901 611 901 578.8 901C546.7 901 514.3 901 482.2 901C450 901 418 901 385.8 901C353.7 901 321.3 901 289.2 901C257 901 225 901 192.8 901C160.7 901 128.3 901 96.2 901C64 901 32 901 16 901L0 901Z" fill="#0072bb"></path></svg>