<svg id="visual" preserveAspectRatio="none" viewBox="0 0 675 900" xmlns="http://www.w3.org/2000/svg" xmlns:xlink="http://www.w3.org/1999/xlink" version="1.1"><rect x="0" y="0" width="675" height="900" fill="#071524"></rect><path d="M0 821L12.5 820.2C25 819.3 50 817.7 75 825.2C100 832.7 125 849.3 150 850C175 850.7 200 835.3 225 828.7C250 822 275 824 300 829C325 834 350 842 375 840.8C400 839.7 425 829.3 450 827.5C475 825.7 500 832.3 525 837.3C550 842.3 575 845.7 600 847.7C625 849.7 650 850.3 662.5 850.7L675 851L675 901L662.5 901C650 901 625 901 600 901C575 901 550 901 525 901C500 901 475 901 450 901C425 901 400 901 375 901C350 901 325 901 300 901C275 901 250 901 225 901C200 901 175 901 150 901C125 901 100 901 75 901C50 901 25 901 12.5 901L0 901Z" fill="#ffdd09"></path><path d="M0 873L12.5 869.3C25 865.7 50 858.3 75 858C100 857.7 125 864.3 150 867C175 869.7 200 868.3 225 868.7C250 869 275 871 300 869C325 867 350 861 375 856.7C400 852.3 425 849.7 450 851.7C475 853.7 500 860.3 525 858.7C550 857 575 847 600 845.3C625 843.7 650 850.3 662.5 853.7L675 857L675 901L662.5 901C650 901 625 901 600 901C575 901 550 901 525 901C500 901 475 901 450 901C425 901 400 901 375 901C350 901 325 901 300 901C275 901 250 901 225 901C200 901 175 901 150 901C125 901 100 901 75 901C50 901 25 901 12.5 901L0 901Z" fill="#6aba56"></path><path d="M0 859L12.5 856.8C25 854.7 50 850.3 75 852.2C100 854 125 862 150 867.3C175 872.7 200 875.3 225 875C250 874.7 275 871.3 300 871.3C325 871.3 350 874.7 375 874.2C400 873.7 425 869.3 450 869.5C475 869.7 500 874.3 525 877C550 879.7 575 880.3 600 874.7C625 869 650 857 662.5 851L675 845L675 901L662.5 901C650 901 625 901 600 901C575 901 550 901 525 901C500 901 475 901 450 901C425 901 400 901 375 901C350 901 325 901 300 901C275 901 250 901 225 901C200 901 175 901 150 901C125 901 100 901 75 901C50 901 25 901 12.5 901L0 901Z" fill="#008472"></path><path d="M0 881L12.5 881.5C25 882 50 883 75 880C100 877 125 870 150 865.7C175 861.3 200 859.7 225 863.7C250 867.7 275 877.3 300 878.7C325 880 350 873 375 872.8C400 872.7 425 879.3 450 878.5C475 877.7 500 869.3 525 869C550 868.7 575 876.3 600 877.8C625 879.3 650 874.7 662.5 872.3L675 870L675 901L662.5 901C650 901 625 901 600 901C575 901 550 901 525 901C500 901 475 901 450 901C425 901 400 901 375 901C350 901 325 901 300 901C275 901 250 901 225 901C200 901 175 901 150 901C125 901 100 901 75 901C50 901 25 901 12.5 901L0 901Z" fill="#004a5a"></path><path d="M0 882L12.5 881.8C25 881.7 50 881.3 75 881.2C100 881 125 881 150 883C175 885 200 889 225 889.8C250 890.7 275 888.3 300 886.8C325 885.3 350 884.7 375 886C400 887.3 425 890.7 450 892.3C475 894 500 894 525 893.5C550 893 575 892 600 891.8C625 891.7 650 892.3 662.5 892.7L675 893L675 901L662.5 901C650 901 625 901 600 901C575 901 550 901 525 901C500 901 475 901 450 901C425 901 400 901 375 901C350 901 325 901 300 901C275 901 250 901 225 901C200 901 175 901 150 901C125 901 100 901 75 901C50 901 25 901 12.5 901L0 901Z" fill="#071524"></path></svg>